<svg xmlns="http://www.w3.org/2000/svg" width="213.21" height="40.406" viewBox="0 0 56.412 10.691"><path d="M112.534 172.883h2.734l1.694 5.131h.033l1.421-5.131h2.803l1.539 5.131h.034l1.557-5.131h2.598l-2.957 8.175h-2.531l-1.727-5.432h-.034l-1.54 5.432h-2.581zM127.49 170.835h2.733v2.048h-2.734z" style="fill:#006e94;fill-opacity:1;fill-rule:nonzero;stroke:none;stroke-width:.35277778" transform="translate(-112.401 -170.702)"/><path d="M127.49 172.883h2.733v8.175h-2.734z" style="fill:#91d44f;fill-opacity:1;fill-rule:nonzero;stroke:none;stroke-width:.35277778" transform="translate(-112.401 -170.702)"/><path d="M136.063 175.289c-.376-.455-.872-.69-1.486-.69-.428 0-.942.186-.942.672 0 1.212 4.325.185 4.325 3.297 0 2.087-2.05 2.693-3.829 2.693-1.163 0-2.445-.288-3.266-1.112l1.557-1.698c.478.571 1.043.891 1.81.891.584 0 1.164-.15 1.164-.588 0-1.314-4.325-.202-4.325-3.314 0-1.92 1.743-2.76 3.488-2.76 1.095 0 2.31.27 3.079 1.076zM144.243 174.902h-2.258v2.722c0 .877.103 1.516 1.214 1.516.274 0 .82-.033 1.044-.234v2.102c-.564.2-1.197.253-1.796.253-1.71 0-3.029-.69-3.029-2.473v-3.886h-1.64v-2.02h1.64v-2.047h2.567v2.048h2.258zM145.144 172.883h2.565v1.311h.034c.548-.99 1.264-1.514 2.394-1.514.29 0 .615.018.853.085v2.306a3.977 3.977 0 0 0-1.092-.17c-1.951 0-2.19 1.113-2.19 2.743v3.414h-2.564zM150.717 176.97c0 2.607 2.052 4.29 4.618 4.29 2.564 0 4.616-1.683 4.616-4.29 0-2.608-2.052-4.29-4.616-4.29-2.566 0-4.618 1.682-4.618 4.29m2.564 0c0-1.227.77-2.068 2.054-2.068 1.28 0 2.051.84 2.051 2.068 0 1.229-.771 2.07-2.05 2.07-1.284 0-2.055-.841-2.055-2.07M160.678 172.883h2.462v1.108h.036c.341-.637 1.178-1.31 2.425-1.31 2.6 0 3.08 1.68 3.08 3.87v4.507h-2.566v-4.004c0-.94-.017-2.152-1.332-2.152-1.335 0-1.54 1.026-1.54 2.085v4.07h-2.565z" style="fill:#006e94;fill-opacity:1;fill-rule:nonzero;stroke:none;stroke-width:.35277778" transform="translate(-112.401 -170.702)"/></svg>